<svg xmlns="http://www.w3.org/2000/svg" width="512" height="512" viewBox="0 0 512 512">
  <!-- Серце -->
  <path d="M256 472s-144-88-144-232c0-66 54-120 120-120 30 0 56 12 76 32 20-20 46-32 76-32 66 0 120 54 120 120 0 144-144 232-144 232H256z"
        fill="#e53935"/>
  
  <!-- Лінія ЕКГ -->
  <polyline points="120,260 170,260 190,200 220,320 250,220 280,300 310,240 340,260 392,260"
            fill="none" stroke="#ffffff" stroke-width="12" stroke-linecap="round" stroke-linejoin="round"/>
  
  <!-- Напівкругла шкала -->
  <path d="M256 80
           A176 176 0 0 1 432 256"
        fill="none" stroke="#424242" stroke-width="16" stroke-linecap="round"/>
  
  <!-- Поділки шкали -->
  <line x1="256" y1="80" x2="256" y2="40" stroke="#424242" stroke-width="8"/>
  <line x1="336" y1="104" x2="360" y2="72" stroke="#424242" stroke-width="8"/>
  <line x1="408" y1="176" x2="440" y2="152" stroke="#424242" stroke-width="8"/>
</svg>
