<svg xmlns="http://www.w3.org/2000/svg" viewBox="0 0 600 600" width="100%" height="100%">
  <path d="M 190 205 C 125 130, 30 205, 30 295 C 30 385, 125 445, 190 505 C 255 445, 350 385, 350 295 C 350 205, 255 130, 190 205 Z" fill="#FF4B4B" />
  
  <path d="M 30 295 L 135 295 L 155 255 L 175 350 L 200 210 L 222 325 L 242 280 L 262 295 L 350 295" fill="none" stroke="#FFFFFF" stroke-width="15" stroke-linecap="round" stroke-linejoin="round" />

  <path d="M 380 125 A 240 240 0 0 1 380 465" fill="none" stroke="#FFFFFF" stroke-width="26" stroke-linecap="round"/>
  
  <line x1="380" y1="125" x2="405" y2="100" stroke="#FFFFFF" stroke-width="16" stroke-linecap="round" />
  <line x1="431" y1="200" x2="459" y2="191" stroke="#FFFFFF" stroke-width="16" stroke-linecap="round" />
  <line x1="450" y1="295" x2="478" y2="295" stroke="#FFFFFF" stroke-width="16" stroke-linecap="round" />
  <line x1="431" y1="390" x2="459" y2="399" stroke="#FFFFFF" stroke-width="16" stroke-linecap="round" />
  <line x1="380" y1="465" x2="405" y2="490" stroke="#FFFFFF" stroke-width="16" stroke-linecap="round" />
</svg>
