<svg xmlns="http://www.w3.org/2000/svg" viewBox="0 0 600 600" width="100%" height="100%">
  <path d="M 220 205 C 155 130, 60 205, 60 295 C 60 385, 155 445, 220 505 C 285 445, 380 385, 380 295 C 380 205, 285 130, 220 205 Z" fill="#FF4B4B" />
  
  <path d="M 60 295 L 165 295 L 185 255 L 205 350 L 230 210 L 252 325 L 272 280 L 292 295 L 380 295" fill="none" stroke="#FFFFFF" stroke-width="15" stroke-linecap="round" stroke-linejoin="round" />

  <path d="M 430 125 A 240 240 0 0 1 430 465" fill="none" stroke="#1A2E4C" stroke-width="26" stroke-linecap="round"/>
  
  <line x1="430" y1="125" x2="455" y2="100" stroke="#1A2E4C" stroke-width="16" stroke-linecap="round" />
  <line x1="481" y1="200" x2="509" y2="191" stroke="#1A2E4C" stroke-width="16" stroke-linecap="round" />
  <line x1="500" y1="295" x2="528" y2="295" stroke="#1A2E4C" stroke-width="16" stroke-linecap="round" />
  <line x1="481" y1="390" x2="509" y2="399" stroke="#1A2E4C" stroke-width="16" stroke-linecap="round" />
  <line x1="430" y1="465" x2="455" y2="490" stroke="#1A2E4C" stroke-width="16" stroke-linecap="round" />
</svg>
